/* XPM */
static char *result[] = {
/* columns rows colors chars-per-pixel */
"32 32 5 1 ",
"  c black",
". c #824040",
"X c #AC5A5A",
"o c white",
"O c None",
/* pixels */
"OOOOOOOOOOOOOOOOOOOOOOOOOOOOOOOO",
"OOOOOOOOOOOOOOOOOOOOOOOOOOOOOOOO",
"OOOOOOOOOOOOOOOOOOOOOOOOOOOOOOOO",
"OOOOOOOOOOOO  OOOO  OOOOOOOOOOOO",
"OOOOOOOOOOO XX OO XX OOOOOOOOOOO",
"OOOOOOOOOOO X OOO X OOOOOOOOOOOO",
"OOOOOOOOOOO  OOOO  OOOOOOOOOOOOO",
"OOOOOOOOOOO  OOOO  OOOOOOOOOOOOO",
"OOOOOOOOO             OOOOOOOOOO",
"OOOOOOO  XXXXXXXXXXXX  OOOOOOOOO",
"OOOOOO XXXXXXXXXXXXXXXX  OOOOOOO",
"OOOOO XXXXXXXXXXXXXXXXXXX OOOOOO",
"OOOO XXXXXXXXXXXXXXXXXX..X OOOOO",
"OOO XXXXXXXXXXXXXXXXXXXX..X OOOO",
"OO XXXXXXooXXXXXXXXooXXXX..X OOO",
"O XXXXXXooooXXXXXXooooXXXX..X OO",
"O XXXXXXooooXXXXXXooooXXXXX.X OO",
"O XXXXXXo  oXXXXXXo  oXXXXX.X OO",
"O XXXXXXo ooXXXXXXo ooXXXXX.X OO",
"O XXXXXXXooXXXXXXXXooXXXXXX.X OO",
"O XXXXXXXXXXXXXXXXXXXXXXXXX.X OO",
"O XXXXXXXXXXXXXXXXXXXXXXXXX.X OO",
"O XXXXXXXXXXXXXXXXXXXXXXXXX.X OO",
"O XXXXXXXXXXX   XXXXXXXXXXX.X OO",
"O XXXXXXXXXXXX XXXXXXXXXXXX.X OO",
"O XXXXXXXXXXXXXXXXXXXXXXX..XX OO",
"OO  XXXXXXXXXXXXXXXXXXXX..X  OOO",
"OOO X.XXXXXXXXXXXXXXXXX...X OOOO",
"OO XX..XXXXXXXXXXXXXX.....XX OOO",
"O XX........................X OO",
" XX..........................X O",
"                               O"
};
