/* XPM */
static char *result[] = {
/* columns rows colors chars-per-pixel */
"32 32 5 1 ",
"  c black",
". c #824040",
"X c #AC5A5A",
"o c white",
"O c None",
/* pixels */
"OOOOOOOOOOOOOOOOOOOOOOOOOOOOOOOO",
"OOOOOOOOOOOO  OOOOO  OOOOOOOOOOO",
"OOOOOOOOOOO XX OOO XX OOOOOOOOOO",
"OOOOOOOOOOO X OOOO X OOOOOOOOOOO",
"OOOOOOOOOOO  OOOOO  OOOOOOOOOOOO",
"OOOOOOOOOOO  OOOOO  OOOOOOOOOOOO",
"OOOOOOOOO              OOOOOOOOO",
"OOOOOOO  XXXXXXXXXXXXX  OOOOOOOO",
"OOOOOO XXXXXXXXXXXXXXXXX  OOOOOO",
"OOOOO XXXXXXXXXXXXXXXXXXXX OOOOO",
"OOOO XXXXXXXXXXXXXXXXXXX..X OOOO",
"OOO XXXXXXXXXXXXXXXXXXXXX..X OOO",
"OO XXXXXXooXXXXXXXXXooXXXX..X OO",
"O XXXXXXooooXXXXXXXooooXXXX..X O",
"O XXXXXXooooXXXXXXXooooXXXXX.X O",
"O XXXXXXo  oXXXXXXXo  oXXXXX.X O",
"O XXXXXXo ooXXXXXXXo ooXXXXX.X O",
"O XXXXXXXooXXXXXXXXXooXXXXXX.X O",
"O XXXXXXXXXXXXXXXXXXXXXXXXXX.X O",
"O XXXXXXXXXXXXXXXXXXXXXXXXXX.X O",
"O XXXXXXXXXXXXXXXXXXXXXXXXXX.X O",
"O XXXXXXXXXXXX   XXXXXXXXXXX.X O",
"O XXXXXXXXXXXXX XXXXXXXXXXXX.X O",
"O XXXXXXXXXXXXXXXXXXXXXXXXX.XX O",
"OO XXXXXXXXXXXXXXXXXXXXXXXX.X OO",
"OO XXXXXXXXXXXXXXXXXXXXXXX.XX OO",
"OOO XXXXXXXXXXXXXXXXXXXXXX.X OOO",
"OOO XXXXXXXXXXXXXXXXXXXXX..X OOO",
"OOO X.XXXXXXXXXXXXXXXXXX...X OOO",
"OO XX..XXXXXXXXXXXXXXX.....XX OO",
"O XX........................XX O",
"O                              O"
};
