/* XPM */
static char *result[] = {
/* columns rows colors chars-per-pixel */
"32 32 4 1 ",
"  c black",
". c #824040",
"X c #AC5A5A",
"o c None",
/* pixels */
"oooooooooooooooooooooooooooooooo",
"oooooooooooooooooooooooooooooooo",
"oooooooooooooooooooooooooooooooo",
"oooooooooooooooooooooooooooooooo",
"oooooooooooooooooooooooooooooooo",
"oooooooooooooooooooooooooooooooo",
"oooooooooooooooooooooooooooooooo",
"oooooooooooooooooooooooooooooooo",
"oooooooooooooooooooooooooooooooo",
"oooooooooooooooooooooooooooooooo",
"oooooooooooooooooooooooooooooooo",
"oooooooooooooooooooooooooooooooo",
"oooooooooooooooooooooooooooooooo",
"oooooooooooooooooooooooooooooooo",
"oooooooooooooooooooooooooooooooo",
"oooooooooooooooooooooooooooooooo",
"oooooooooooooooooooooooooooooooo",
"oooooooooooooooooooooooooooooooo",
"oooooooooooooooooooooooooooooooo",
"oooooooooooo  ooooo  ooooooooooo",
"ooooooooooo XX ooo XX oooooooooo",
"ooooooooo   X      X   ooooooooo",
"ooooooo  XXXXXXXXXXXXX  oooooooo",
"oooooo XXXXXXXXXXXXXXXXX  oooooo",
"ooooo XXXXXXXXXXXXXXXXXXXX ooooo",
"oooo XXXXXXXXXXXXXXXXXXX..X oooo",
"ooo XXXXXXXXXXXXXXXXXXXXX..X ooo",
"oo XXXXXXXXXXXXXXXXXXXXXXX..X oo",
"o XXXXXXXXXXXXXXXXXXXXXXXXX..X o",
"o XX.........................X o",
"o X..........................X o",
"o                              o"
};
