/* XPM */
static char *result[] = {
/* columns rows colors chars-per-pixel */
"32 32 6 1 ",
"  c #3E0000",
". c #5E0000",
"X c #7E0000",
"o c #9C0000",
"O c #BA0000",
"+ c None",
/* pixels */
"++++++++++++++++++++++++++++++++",
"++++++++++++++     +++++++++++++",
"++++++++++++  .....  +++++++++++",
"+++++++++++ ..XXXXX.. ++++++++++",
"++++++++++ .XXXoooXXX. +++++++++",
"+++++++++ .XXooOOOooXX. ++++++++",
"++++++++ .XXooOOOOOooXX. +++++++",
"++++++++ .XooOOOOOOOooX. +++++++",
"+++++++ .XoooooOOOoooooX. ++++++",
"+++++++ XXXoooooooooooXXX ++++++",
"++++++ .X.XXXoooooooXXX.X. +++++",
"++++++ XX..XXXXXXXXXXX..XX +++++",
"+++++ .X....X.XXXXX.X....X. ++++",
"+++++ .. . ....XXX.... . .. ++++",
"++++....    .........    .X..+++",
"++++.X. .    .......    . .X.+++",
"+++.X.... .           . ....X.++",
"+++XX.X.... ..     .. ....X.XX++",
"++.X.XX......... .........XX.X.+",
"++X.XoX.X....X.....X....X.XoX.X+",
"+++XooXXXX.X.X.....X.X.XXXXooX++",
"+++XooXXXX.XXXX...XXXX.XXXXooX++",
"+++oXoXXoXXXXXXX.XXXXXXXoXXoXo++",
"+++o+oXooXXXXoXXXXXoXXXXooXo+o++",
"+++++oooooXoXooXXXooXoXooooo++++",
"+++++oooooXoooooXoooooXooooo++++",
"++++++oo+ooooooooooooooo+oo+++++",
"++++++o++ooooooooooooooo++o+++++",
"++++++++++oo+ooooooo+oo+++++++++",
"+++++++++++o++ooooo++o++++++++++",
"+++++++++++++++ooo++++++++++++++",
"++++++++++++++++++++++++++++++++"
};
