/* XPM */
static char *result[] = {
/* columns rows colors chars-per-pixel */
"32 32 5 1 ",
"  c black",
". c #824040",
"X c #AC5A5A",
"o c white",
"O c None",
/* pixels */
"OOOOOOOOOOOOOOOOOOOOOOOOOOOOOOOO",
"OOOOOOOOOOOOOOOOOOOOOOOOOOOOOOOO",
"OOOOOOOOOOOOOOOOOOOOOOOOOOOOOOOO",
"OOOOOOOOOOOOOOOOOOOOOOOOOOOOOOOO",
"OOOOOOOOOOOOOOOOOOOOOOOOOOOOOOOO",
"OOOOOOOOOOOOOO  OOOOOOOOOOOOOOOO",
"OOOOOOOOOOOOO XX OOOO  OOOOOOOOO",
"OOOOOOOOOOOO XX OOOO XX OOOOOOOO",
"OOOOOOOOO   XX      XX OOOOOOOOO",
"OOOOOOO  XXXXXXXXXXXXX OOOOOOOOO",
"OOOOOO XXXXXXXXXXXXXXXX  OOOOOOO",
"OOOOO XXXXXXXXXXXXXXXXXXX OOOOOO",
"OOOO XXXXXXXXXXXXXXXXXX..X OOOOO",
"OOO XXXXXXXXXXXXXXXXXXXX..X OOOO",
"OO XXXXXXXXXXXXXXXXXXXXX...X OOO",
"O XXXXXXXXXXXXXXXXXXXXXXX..X OOO",
"O XXXooXXXXXXXXooXXXXXXXXX.X OOO",
"O XXo  oXXXXXXo  oXXXXXXXX.X OOO",
"O XXXooXXXXXXXXooXXXXXXXXX.X  OO",
"O XXXXXXXXXXXXXXXXXXXXXXXX.XX OO",
"O XXXXXXXXXXXXXXXXXXXXXXXX..X OO",
"O XXXXXXX   XXXXXXXXXXXXXXX.X OO",
"O XXXXXXXX XXXXXXXXXXXXXXXX.X OO",
"OO XXXXXXXXXXXXXXXXXXXXXXXX.X OO",
"OO XXXXXXXXXXXXXXXXXXXXXXXX.X OO",
"OOO XXXXXXXXXXXXXXXXXXXXXXX.X  O",
"OOO XXXXXXXXXXXXXXXXXXXXXXX.XX O",
"OOOO XXXXXXXXXXXXXXXXXXXX....X O",
"OOOOO XXXXXXXXXXXXXXXXX......X O",
"OOOOOO  XXXXXXXXXXX...........X ",
"OOOOOOOO .....................X ",
"OOOOOOOOO                       "
};
