/* XPM */
static char *result[] = {
/* columns rows colors chars-per-pixel */
"32 32 4 1 ",
"  c black",
". c #824040",
"X c #AC5A5A",
"o c None",
/* pixels */
"oooooooooooooooooooooooooooooooo",
"oooooooooooooooooooooooooooooooo",
"oooooooooooooooooooooooooooooooo",
"oooooooooooooooooooooooooooooooo",
"oooooooooooooooooooooooooooooooo",
"oooooooooooooooooooooooooooooooo",
"oooooooooooooooooooooooooooooooo",
"oooooooooooooooooooooooooooooooo",
"oooooooooooooooooooooooooooooooo",
"oooooooooooooooooooooooooooooooo",
"oooooooooooooooooooooooooooooooo",
"oooooooooooooooooooooooooooooooo",
"oooooooooooooo  oooooooooooooooo",
"ooooooooooooo XX oooo  ooooooooo",
"oooooooooo   XX      XX oooooooo",
"oooooooo  XXXXXXXXXXXXX oooooooo",
"ooooooo XXXXXXXXXXXXXXXX  oooooo",
"oooooo XXXXXXXXXXXXXXXXXXX ooooo",
"ooooo XXXXXXXXXXXXXXXXXX..X oooo",
"oooo XXXXXXXXXXXXXXXXXXXX..X ooo",
"ooo XXXXXXXXXXXXXXXXXXXXX...X oo",
"oo XXXXXXXXXXXXXXXXXXXXXXX..X oo",
"oo XXXXXXXXXXXXXXXXXXXXXXXX.X oo",
"oo XXX  XXXXXXXX  XXXXXXXXX.X oo",
"oo XXXXXXXXXXXXXXXXXXXXXXXX.X  o",
"oo XXXXXXXXXXXXXXXXXXXXXXXX.XX o",
"ooo XXXXXXXXXXXXXXXXXXXXXXX..X o",
"oooo XXXXXXXXXXXXXXXXXXXX....X o",
"oooo XXXXXXXXXXXXXXXXXX......X o",
"ooo XXXXXXXXXXXXXXX...........X ",
"ooo XXXXXX....................X ",
"oo                              "
};
