/* XPM */
static char *result[] = {
/* columns rows colors chars-per-pixel */
"32 32 5 1 ",
"  c black",
". c #824040",
"X c #AC5A5A",
"o c white",
"O c None",
/* pixels */
"OOOOOOOOOOOOOOOOOOOOOOOOOOOOOOOO",
"OOOOOOOOOOOOOOOOOOOOOOOOOOOOOOOO",
"OOOOOOOOOOOOOOOOOOOOOOOOOOOOOOOO",
"OOOOOOOOOOOOOOOO  OOOOOOOOOOOOOO",
"OOOOOOOOOOOOOOO XX OOOOOOOOOOOOO",
"OOOOOOOOO  OOOOO XX OOOOOOOOOOOO",
"OOOOOOOO XX  OOOO XX OOOOOOOOOOO",
"OOOOOOOOO XXX      XX  OOOOOOOOO",
"OOOOOOOOO   XXXXXXXXXXX  OOOOOOO",
"OOOOOOO  XXXXXXXXXXXXXXXX OOOOOO",
"OOOOOO XXXXXXXXXXXXXXXXXXX OOOOO",
"OOOOO X..XXXXXXXXXXXXXXXXXX OOOO",
"OOOO X..XXXXXXXXXXXXXXXXXXXX OOO",
"OOO X...XXXXXXXooXXXXXXXXooXX OO",
"OOO X..XXXXXXXooooXXXXXXooooXX O",
"OOO X.XXXXXXXXooooXXXXXXooooXX O",
"OOO X.XXXXXXXXo  oXXXXXXo  oXX O",
"OO  X.XXXXXXXXoo oXXXXXXoo oXX O",
"OO XX.XXXXXXXXXooXXXXXXXXooXXX O",
"OO X..XXXXXXXXXXXXXXXXXXXXXXXX O",
"OO X.XXXXXXXXXXXXXXXXXXXXXXXXX O",
"OO X.XXXXXXXXXXXXXXXXXXXXXXXXX O",
"OO X.XXXXXXXXXXXXXXX   XXXXXXX O",
"OO X.XXXXXXXXXXXXXXXX XXXXXXXX O",
"OO XX.XXXXXXXXXXXXXXXXXXXXXXX OO",
"OOO XX.XXXXXXXXXXXXXXXXXXXXXX OO",
"OO  X...XXXXXXXXXXXXXXXXXXXX OOO",
"OO XX....XXXXXXXXXXXXXXXXXXX OOO",
"OO X.......XXXXXXXXXXXXXXXX  OOO",
"O X............XXXXXXXXXX  OOOOO",
"O ........    .........  OOOOOOO",
"O         OOOO          OOOOOOOO"
};
