/* XPM */
static char *result[] = {
/* columns rows colors chars-per-pixel */
"32 32 5 1 ",
"  c black",
". c #824040",
"X c #AC5A5A",
"o c white",
"O c None",
/* pixels */
"OOOOOOOOOOOOOOOOOOOOOOOOOOOOOOOO",
"OOOOOOOOOOOOOOOOOOOOOOOOOOOOOOOO",
"OOOOOOOOOOOOOOOOOOOOOOOOOOOOOOOO",
"OOOOOOOOOOOOOOOO  OOOOOOOOOOOOOO",
"OOOOOOOOO  OOOO XX OOOOOOOOOOOOO",
"OOOOOOOO XX OOOO XX OOOOOOOOOOOO",
"OOOOOOOOO XX OOOO XX OOOOOOOOOOO",
"OOOOOOOOOO XX      XX  OOOOOOOOO",
"OOOOOOOOO   XXXXXXXXXXX  OOOOOOO",
"OOOOOOO  XXXXXXXXXXXXXXXX OOOOOO",
"OOOOOO XXXXXXXXXXXXXXXXXXX OOOOO",
"OOOOO X..XXXXXXXXXXXXXXXXXX OOOO",
"OOOO X..XXXXXXXXXXXXXXXXXXXX OOO",
"OOO X...XXXXXXXooXXXXXXXXooXX OO",
"OOO X..XXXXXXXooooXXXXXXooooXX O",
"OOO X.XXXXXXXXooooXXXXXXooooXX O",
"OOO X.XXXXXXXXo  oXXXXXXo  oXX O",
"OO  X.XXXXXXXXoo oXXXXXXoo oXX O",
"OO XX.XXXXXXXXXooXXXXXXXXooXXX O",
"OO X..XXXXXXXXXXXXXXXXXXXXXXXX O",
"OO X.XXXXXXXXXXXXXXXXXXXXXXXXX O",
"OO X.XXXXXXXXXXXXXXXXXXXXXXXXX O",
"OO X.XXXXXXXXXXXXXXX   XXXXXXX O",
"OO X.XXXXXXXXXXXXXXXX XXXXXXXX O",
"OO X.XXXXXXXXXXXXXXXXXXXXXXXX OO",
"O  X..XXXXXXXXXXXXXXXXXXXXXX OOO",
"O XX....XXXXXXXXXXXXXXXXXXXX OOO",
"O X.......XXXXXXXXXXXXXXXXX OOOO",
"O X............XXXXXXXXXXX OOOOO",
" X.....................X  OOOOOO",
" X..................... OOOOOOOO",
"                       OOOOOOOOO"
};
