/* XPM */
static char *result[] = {
/* columns rows colors chars-per-pixel */
"32 32 11 1 ",
"  c black",
". c #3E0000",
"X c #5E0000",
"o c #7E0000",
"O c #403200",
"+ c #5C4800",
"@ c #9C0000",
"# c #BA0000",
"$ c #917200",
"% c #C79C00",
"& c None",
/* pixels */
"&&&&&&&&&&&&&&&&&&&&&&&&&&&&&&&&",
"&&&&&&&&&&&&&&&&&&&&&&&&&&&&&&&&",
"&&&&&&&&&&&&&&&.....&&&&&&&&&&&&",
"&&&&&&&&&&&&&..XXXXX..&&&&&&&&&&",
"&&&&&&&&&&&&.XXoooooXX.&&&&&&&&&",
"&&&&&&&&&&&.Xooo@@@oooX.&&&&&&&&",
"&&&&&&&&&&.Xoo@@###@@ooX.&&&&&&&",
"&&&&&&&&&.Xoo@@#####@@ooX&&&&&&&",
"&&&&&&&&&.Xo@@@@@@@@@@@oX.&&&&&&",
"&&&&&&&&.Xo@oo@@@@ooXXXXX.&&&&&&",
"&&&&&&&&.oooo@@o@oXX..XXXX.&&&&&",
"&&&&&&&.Xooo@ooooXX.       &&&&&",
"&&&&&&.XXoXoooXXXX. +++O  O&&&&&",
"&&&&&&XXXXXoXX.XX. +$%$+OOO&&&&&",
"&&&&&.X.X.XXX..X.. +$%%$OOO&&&&&",
"&&&&&X.....X.....  O+$$+OOO&&&&&",
"&&&&.XX..........   O++OO O&&&&&",
"&&&&XXX.X........    OOO   &&&&&",
"&&&.XXoXXXX.XX....        .&&&&&",
"&&&XoooXXXXXX..X....    ...&&&&&",
"&&ooooXooXXXXXX...X........&&&&&",
"&&ooooooXXXXXXX.XXXX.X..XX&&&&&&",
"&o@o@oooXoXXoXXXXXXXXXXXXo&&&&&&",
"&@@@@oooooooooXXooXXooXXoo&&&&&&",
"&&&@@@o@ooooooooooooooooo@&&&&&&",
"&&&@@@@@oo@oooooooo@oooo@&&&&&&&",
"&&&&@@@@@@@oo@oooo@@@oo@@&&&&&&&",
"&&&&&&@@@@@@@@@oo@@@@@@@@&&&&&&&",
"&&&&&&&@@@@@@@@@@@@@@@@@&&&&&&&&",
"&&&&&&&&&&@@@@@@@@@@@@@@&&&&&&&&",
"&&&&&&&&&&&@@&@@@@@@@&@&&&&&&&&&",
"&&&&&&&&&&&&&&&&@@@@&&&&&&&&&&&&"
};
