/* XPM */
static char *result[] = {
/* columns rows colors chars-per-pixel */
"32 32 11 1 ",
"  c black",
". c #3E0000",
"X c #5E0000",
"o c #7E0000",
"O c #403200",
"+ c #5C4800",
"@ c #9C0000",
"# c #BA0000",
"$ c #AD8800",
"% c #FFC800",
"& c None",
/* pixels */
"&&&&&&&&&&&&&&&&&&&&&&&&&&&&&&&&",
"&&&&&&&&&&&&&&&.....&&&&&&&&&&&&",
"&&&&&&&&&&&&&..XXXXX..&&&&&&&&&&",
"&&&&&&&&&&&&.XXoooooXX.&&&&&&&&&",
"&&&&&&&&&&&.Xooo@@@oooX.&&&&&&&&",
"&&&&&&&&&&.Xoo@@###@@ooX.&&&&&&&",
"&&&&&&&&&.Xoo@@#####@@ooX&&&&&&&",
"&&&&&&&&&.Xo@@@@@@@@@@@oX.&&&&&&",
"&&&&&&&&.Xo@oo@@@@ooXXXXX.&&&&&&",
"&&&&&&&&.oooo@@o@oXX..XXXX.&&&&&",
"&&&&&&&.Xooo@ooooXX.       &&&&&",
"&&&&&&.XXoXoooXXXX. +++O  O&&&&&",
"&&&&&&XXXXXoXX.XX. +$%$+OOO&&&&&",
"&&&&&.X.XX.XX..X.. +$%%$OOO&&&&&",
"&&&&&XX....X.....  O+$$+OOO&&&&&",
"&&&&.XXX.........   O++OO O&&&&&",
"&&&&XXXX.X.X.....    OOO   &&&&&",
"&&&&XXoXXXXX.X....        .&&&&&",
"&&&.XooXXXXXX..X....    ...&&&&&",
"&&&XoooXoXXXX.XX..X........&&&&&",
"&&&ooooooXXXXXXX.XXX.X..XX&&&&&&",
"&&o@o@oooXoXXoXXXXXoXXXXXo&&&&&&",
"&&@@@@oooooXoooXXoooXoXXoo&&&&&&",
"&&@&@@oo@oooooooooo@ooooo&&&&&&&",
"&&&&@@@@@oo@oo@ooo@@ooo@@&&&&&&&",
"&&&&&@@@@o@@o@@oo@@@@o@@@&&&&&&&",
"&&&&&@@&@@@@@@@o@@@@@@@@&&&&&&&&",
"&&&&&&&&@@@@@@@@@@@@@@@@&&&&&&&&",
"&&&&&&&&&@@&@@@@@@@@@@@&&&&&&&&&",
"&&&&&&&&&&&&@@&@@@@@&@&&&&&&&&&&",
"&&&&&&&&&&&&&&&&@@@&&&&&&&&&&&&&",
"&&&&&&&&&&&&&&&&&&&&&&&&&&&&&&&&"
};
