/* XPM */
static char *result[] = {
/* columns rows colors chars-per-pixel */
"32 32 14 1 ",
"  c black",
". c #3E0000",
"X c #5E0000",
"o c #7E0000",
"O c #403200",
"+ c #5C4800",
"@ c #765D00",
"# c #9C0000",
"$ c #BA0000",
"% c #917200",
"& c #C79C00",
"* c #FFC800",
"= c #FFDB5F",
"- c None",
/* pixels */
"---------------.....------------",
"-------------..XXXXX..----------",
"------------.XXoooooXX.---------",
"-----------.Xooo###oooX.--------",
"----------.Xoo##$$$##ooX.-------",
"---------.Xoo##$$$$$##ooX-------",
"---------.Xo###########oX.------",
"--------.Xo#oo####ooXXXXX.------",
"--------.oooo##o#oXX..XXXX.-----",
"-------.Xooo#ooooXX.       -----",
"------.XXoXoooXXXX. +++O  O-----",
"------XXXXXoXX.XX. +&*&%OOO-----",
"-----.XXXX.XX..X.. @*==*OOO-----",
"-----XX....X.....  O@*=&OOO-----",
"-----XXX.........   O@@OO O-----",
"----.XXXX.X.X....    OOO   -----",
"----XXoXXXXXX.....        .-----",
"---oXoooXXXXXX.X....    ...-----",
"---oooooXXXXXX.X..X.....X..-----",
"---ooooooXoXXXXX.XXX.X.XXX------",
"---#o#ooooooXXoXXXXoXXXXoo------",
"---###ooooooXoooXXooXoXooo------",
"----###o#o#oooooXo#oooooo-------",
"----#####o#oo#oooo#oooo##-------",
"-----#######o##oo###oo##--------",
"------##-######o####o###--------",
"---------##############---------",
"----------############----------",
"------------#######-#-----------",
"---------------###--------------",
"--------------------------------",
"--------------------------------"
};
