/* XPM */
static char *b6ff99597cdb4f94d11d84054093194bHPyu2liRVYRzI9cw[] = {
/* columns rows colors chars-per-pixel */
"32 32 7 1 ",
"  c #494949",
". c #5A5A59",
"X c #696967",
"o c #BE4A2F",
"O c #F77622",
"+ c #FEAE34",
"@ c #FEE761",
/* pixels */
".XXXXXXXXXXXXXXXXXX...XX..X.... ",
"X.............................. ",
"X.............................. ",
"X.............................. ",
"X.............................. ",
"X.............................. ",
"X......... .................... ",
"X....................   ....... ",
"X..........OO@@@@@@@@   ....... ",
"X.........OO@ooooooo+@......... ",
"X........OO@O++@@@+@O+@........ ",
"X.......OO@O+++@@@+@+O+@....... ",
"X.......OO@++++@@@+@++O+....... ",
"X.......OO@++++@@@+@++O+....... ",
"X.......OO@++++@@@+@++O@....... ",
"X.......OO@++++@@@+@++O@....... ",
"X.......oo@++++@@@+@++O@....... ",
"X.......oo@++++@@@+@++O+....... ",
"X.......oo@++++@@@+@++O+....... ",
"X.......oo@++++@@@+@+@++....... ",
"X........oo@+++@@@++@++........ ",
"X.........oo@+@@@@@@++......... ",
"X..........oo++++++++.......... ",
"X................  ............ ",
"X................  ............ ",
"X.............................. ",
"X.............................. ",
"X.............................. ",
"X.............................. ",
"X.............................. ",
"X.............................. ",
"                                "
};
