/* XPM */
static char *result[] = {
/* columns rows colors chars-per-pixel */
"32 32 5 1 ",
"  c black",
". c #824040",
"X c #AC5A5A",
"o c white",
"O c None",
/* pixels */
"OOOOOOOOOOOOOOOOOOOOOOOOOOOOOOOO",
"OOOOOOOOOOOOOOOOOOOOOOOOOOOOOOOO",
"OOOOOOOOOOOOOOOOOOOOOOOOOOOOOOOO",
"OOOOOOOOOOOOOO  OOOOOOOOOOOOOOOO",
"OOOOOOOOOOOOO XX OOOO  OOOOOOOOO",
"OOOOOOOOOOOO XX OOOO XX OOOOOOOO",
"OOOOOOOOOOO XX OOOO XX OOOOOOOOO",
"OOOOOOOOO  XX      XX OOOOOOOOOO",
"OOOOOOO  XXXXXXXXXXX   OOOOOOOOO",
"OOOOOO XXXXXXXXXXXXXXXX  OOOOOOO",
"OOOOO XXXXXXXXXXXXXXXXXXX OOOOOO",
"OOOO XXXXXXXXXXXXXXXXXX..X OOOOO",
"OOO XXXXXXXXXXXXXXXXXXXX..X OOOO",
"OO XXooXXXXXXXXooXXXXXXX...X OOO",
"O XXooooXXXXXXooooXXXXXXX..X OOO",
"O XXooooXXXXXXooooXXXXXXXX.X OOO",
"O XXo  oXXXXXXo  oXXXXXXXX.X OOO",
"O XXo ooXXXXXXo ooXXXXXXXX.X  OO",
"O XXXooXXXXXXXXooXXXXXXXXX.XX OO",
"O XXXXXXXXXXXXXXXXXXXXXXXX..X OO",
"O XXXXXXXXXXXXXXXXXXXXXXXXX.X OO",
"O XXXXXXXXXXXXXXXXXXXXXXXXX.X OO",
"O XXXXXXX   XXXXXXXXXXXXXXX.X OO",
"O XXXXXXXX XXXXXXXXXXXXXXXX.X OO",
"OO XXXXXXXXXXXXXXXXXXXXXXXX.X OO",
"OOO XXXXXXXXXXXXXXXXXXXXXX..X  O",
"OOO XXXXXXXXXXXXXXXXXXXX....XX O",
"OOOO XXXXXXXXXXXXXXXXX.......X O",
"OOOOO XXXXXXXXXXX............X O",
"OOOOOO  X.....................X ",
"OOOOOOOO .....................X ",
"OOOOOOOOO                       "
};
