/* XPM */
static char *result[] = {
/* columns rows colors chars-per-pixel */
"32 32 5 1 ",
"  c black",
". c #824040",
"X c #AC5A5A",
"o c white",
"O c None",
/* pixels */
"OOOOOOOOOOOOOOOOOOOOOOOOOOOOOOOO",
"OOOOOOOOOOOOOOOOOOOOOOOOOOOOOOOO",
"OOOOOOOOOOOOOOOOOOOOOOOOOOOOOOOO",
"OOOOOOOOOOOOOOOOOOOOOOOOOOOOOOOO",
"OOOOOOOOOOOOOOOOOOOOOOOOOOOOOOOO",
"OOOOOOOOOOOOOOOO  OOOOOOOOOOOOOO",
"OOOOOOOOO  OOOO XX OOOOOOOOOOOOO",
"OOOOOOOO XX OOOO XX OOOOOOOOOOOO",
"OOOOOOOOO XX      XX   OOOOOOOOO",
"OOOOOOOOO XXXXXXXXXXXXX  OOOOOOO",
"OOOOOOO  XXXXXXXXXXXXXXXX OOOOOO",
"OOOOOO XXXXXXXXXXXXXXXXXXX OOOOO",
"OOOOO X..XXXXXXXXXXXXXXXXXX OOOO",
"OOOO X..XXXXXXXXXXXXXXXXXXXX OOO",
"OOO X...XXXXXXXXXXXXXXXXXXXXX OO",
"OOO X..XXXXXXXXXXXXXXXXXXXXXXX O",
"OOO X.XXXXXXXXXooXXXXXXXXooXXX O",
"OOO X.XXXXXXXXo  oXXXXXXo  oXX O",
"OO  X.XXXXXXXXXooXXXXXXXXooXXX O",
"OO XX.XXXXXXXXXXXXXXXXXXXXXXXX O",
"OO X..XXXXXXXXXXXXXXXXXXXXXXXX O",
"OO X.XXXXXXXXXXXXXXX   XXXXXXX O",
"OO X.XXXXXXXXXXXXXXXX XXXXXXXX O",
"OO X.XXXXXXXXXXXXXXXXXXXXXXXX OO",
"OO X.XXXXXXXXXXXXXXXXXXXXXXXX OO",
"O  X.XXXXXXXXXXXXXXXXXXXXXXX OOO",
"O XX.XXXXXXXXXXXXXXXXXXXXXXX OOO",
"O X....XXXXXXXXXXXXXXXXXXXX OOOO",
"O X......XXXXXXXXXXXXXXXXX OOOOO",
" X...........XXXXXXXXXXX  OOOOOO",
" X..................... OOOOOOOO",
"                       OOOOOOOOO"
};
