/* XPM */
static char *result[] = {
/* columns rows colors chars-per-pixel */
"32 32 4 1 ",
"  c black",
". c #824040",
"X c #AC5A5A",
"o c None",
/* pixels */
"oooooooooooooooooooooooooooooooo",
"oooooooooooooooooooooooooooooooo",
"oooooooooooooooooooooooooooooooo",
"oooooooooooooooooooooooooooooooo",
"oooooooooooooooooooooooooooooooo",
"oooooooooooooooooooooooooooooooo",
"oooooooooooooooooooooooooooooooo",
"oooooooooooooooooooooooooooooooo",
"oooooooooooooooooooooooooooooooo",
"oooooooooooooooooooooooooooooooo",
"oooooooooooooooooooooooooooooooo",
"oooooooooooooooooooooooooooooooo",
"oooooooooooooooo  oooooooooooooo",
"ooooooooo  oooo XX ooooooooooooo",
"oooooooo XX      XX   oooooooooo",
"oooooooo XXXXXXXXXXXXX  oooooooo",
"oooooo  XXXXXXXXXXXXXXXX ooooooo",
"ooooo XXXXXXXXXXXXXXXXXXX oooooo",
"oooo X..XXXXXXXXXXXXXXXXXX ooooo",
"ooo X..XXXXXXXXXXXXXXXXXXXX oooo",
"oo X...XXXXXXXXXXXXXXXXXXXXX ooo",
"oo X..XXXXXXXXXXXXXXXXXXXXXXX oo",
"oo X.XXXXXXXXXXXXXXXXXXXXXXXX oo",
"oo X.XXXXXXXXX  XXXXXXXX  XXX oo",
"o  X.XXXXXXXXXXXXXXXXXXXXXXXX oo",
"o XX.XXXXXXXXXXXXXXXXXXXXXXXX oo",
"o X..XXXXXXXXXXXXXXXXXXXXXXX ooo",
"o X....XXXXXXXXXXXXXXXXXXXX oooo",
"o X......XXXXXXXXXXXXXXXXXX oooo",
" X...........XXXXXXXXXXXXXXX ooo",
" X....................XXXXXX ooo",
"                              oo"
};
