/* XPM */
static char *result[] = {
/* columns rows colors chars-per-pixel */
"32 32 4 1 ",
"  c black",
". c #824040",
"X c #AC5A5A",
"o c None",
/* pixels */
"oooooooooooooooooooooooooooooooo",
"oooooooooooooooooooooooooooooooo",
"oooooooooooooooooooooooooooooooo",
"oooooooooo  oooo  oooooooooooooo",
"ooooooooo XX oo XX ooooooooooooo",
"oooooooooo X ooo X ooooooooooooo",
"ooooooooooo  oooo  ooooooooooooo",
"ooooooooooo  oooo  ooooooooooooo",
"ooooooooo             oooooooooo",
"ooooooo  XXXXXXXXXXXX  ooooooooo",
"oooooo XXXXXXXXXXXXXXXX  ooooooo",
"ooooo XXXXXXXXXXXXXXXXXXX oooooo",
"oooo XXXXXXXXXXXXXXXXXX..X ooooo",
"ooo XXXXXXXXXXXXXXXXXXXX..X oooo",
"oo XXXXXXXXXXXXXXXXXXXXXX..X ooo",
"o XXXXXXXXXXXXXXXXXXXXXXXX..X oo",
"o XXXXXXXXXXXXXXXXXXXXXXXXX.X oo",
"o XXXXXXXXXXXXXXXXXXXXXXXXX.X oo",
"o XXXXXXXXXXXXXXXXXXXXXXXXX.X oo",
"o XXXXXXXXXXXXXXXXXXXXXXXXX.X oo",
"o XXXXXXXXXXXXXXXXXXXXXXXXX.X oo",
"o XXXXXXXXXXXXXXXXXXXXXXXXX.X oo",
"o XXXXXXXXXXXXXXXXXXXXXXXXX.X oo",
"o XXXXXXXXXXXXXXXXXXXXXXXXX.X oo",
"o XXXXXXXXXXXXXXXXXXXXXXX...X oo",
"o XXXXXXXXXXXXXXXXXXXXXX...XX oo",
"oo  X.XXXXXXXXXXXXXXXXX...X  ooo",
"ooo X..XXXXXXXXXXXXXX.....X oooo",
"oo XX.....................XX ooo",
"o XX........................X oo",
" XX..........................X o",
"                               o"
};
