/* XPM */
static char *result[] = {
/* columns rows colors chars-per-pixel */
"32 32 11 1 ",
"  c black",
". c #3E0000",
"X c #5E0000",
"o c #7E0000",
"O c #403200",
"+ c #5C4800",
"@ c #9C0000",
"# c #BA0000",
"$ c #917200",
"% c #C79C00",
"& c None",
/* pixels */
"&&&&&&&&&&&&&&&&&&&&&&&&&&&&&&&&",
"&&&&&&&&&&&&&&&&&&&&&&&&&&&&&&&&",
"&&&&&&&&&&&&&.....&&&&&&&&&&&&&&",
"&&&&&&&&&&&..XXXXX..&&&&&&&&&&&&",
"&&&&&&&&&&.XXoooooXX.&&&&&&&&&&&",
"&&&&&&&&&.Xooo@@@oooX.&&&&&&&&&&",
"&&&&&&&&.Xoo@@###@@ooX.&&&&&&&&&",
"&&&&&&&&Xoo@@#####@@ooX.&&&&&&&&",
"&&&&&&&.Xo@@@@@@@@@@@oX.&&&&&&&&",
"&&&&&&&.XXXXXoo@@@@oo@oX.&&&&&&&",
"&&&&&&.XXXX..XXo@o@@oooo.&&&&&&&",
"&&&&&&       .XXoooo@oooX.&&&&&&",
"&&&&&&O  O+++ .XXXXoooXoXX.&&&&&",
"&&&&&&OOO+$%$+ .XX.XXoXXXXX&&&&&",
"&&&&&&OOO$%%$+ ..X..XXX.X.X.&&&&",
"&&&&&&OOO+$$+O  .....X.....X&&&&",
"&&&&&&O OO++O   ..........XX.&&&",
"&&&&&&   OOO    ........X.XXX&&&",
"&&&&&&.        ....XX.XXXXoXX.&&",
"&&&&&&...    ....X..XXXXXXoooX&&",
"&&&&&&........X...XXXXXXooXoooo&",
"&&&&&&&XX..X.XXXX.XXXXXXXoooooo&",
"&&&&&&&oXXXXXXXXXXXXoXXoXooo@o@o",
"&&&&&&&ooXXooXXooXXooooooooo@@@@",
"&&&&&&&@ooooooooooooooooo@o@@@&&",
"&&&&&&&&@oooo@oooooooo@oo@@@@@&&",
"&&&&&&&&@@oo@@@oooo@oo@@@@@@@&&&",
"&&&&&&&&@@@@@@@@oo@@@@@@@@@&&&&&",
"&&&&&&&&&@@@@@@@@@@@@@@@@@&&&&&&",
"&&&&&&&&&@@@@@@@@@@@@@@&&&&&&&&&",
"&&&&&&&&&&@&@@@@@@@&@@&&&&&&&&&&",
"&&&&&&&&&&&&&@@@@&&&&&&&&&&&&&&&"
};
