/* XPM */
static char *result[] = {
/* columns rows colors chars-per-pixel */
"32 32 11 1 ",
"  c black",
". c #3E0000",
"X c #5E0000",
"o c #7E0000",
"O c #403200",
"+ c #5C4800",
"@ c #9C0000",
"# c #BA0000",
"$ c #AD8800",
"% c #FFC800",
"& c None",
/* pixels */
"&&&&&&&&&&&&&&&&&&&&&&&&&&&&&&&&",
"&&&&&&&&&&&&&.....&&&&&&&&&&&&&&",
"&&&&&&&&&&&..XXXXX..&&&&&&&&&&&&",
"&&&&&&&&&&.XXoooooXX.&&&&&&&&&&&",
"&&&&&&&&&.Xooo@@@oooX.&&&&&&&&&&",
"&&&&&&&&.Xoo@@###@@ooX.&&&&&&&&&",
"&&&&&&&&Xoo@@#####@@ooX.&&&&&&&&",
"&&&&&&&.Xo@@@@@@@@@@@oX.&&&&&&&&",
"&&&&&&&.XXXXXoo@@@@oo@oX.&&&&&&&",
"&&&&&&.XXXX..XXo@o@@oooo.&&&&&&&",
"&&&&&&       .XXoooo@oooX.&&&&&&",
"&&&&&&O  O+++ .XXXXoooXoXX.&&&&&",
"&&&&&&OOO+$%$+ .XX.XXoXXXXX&&&&&",
"&&&&&&OOO$%%$+ ..X..XX.XX.X.&&&&",
"&&&&&&OOO+$$+O  .....X....XX&&&&",
"&&&&&&O OO++O   .........XXX.&&&",
"&&&&&&   OOO    .....X.X.XXXX&&&",
"&&&&&&.        ....X.XXXXXoXX&&&",
"&&&&&&...    ....X..XXXXXXooX.&&",
"&&&&&&........X..XX.XXXXoXoooX&&",
"&&&&&&&XX..X.XXX.XXXXXXXoooooo&&",
"&&&&&&&oXXXXXoXXXXXoXXoXooo@o@o&",
"&&&&&&&ooXXoXoooXXoooXooooo@@@@&",
"&&&&&&&&ooooo@oooooooooo@oo@@&@&",
"&&&&&&&&@@ooo@@ooo@oo@oo@@@@@&&&",
"&&&&&&&&@@@o@@@@oo@@o@@o@@@@&&&&",
"&&&&&&&&&@@@@@@@@o@@@@@@@&@@&&&&",
"&&&&&&&&&@@@@@@@@@@@@@@@@&&&&&&&",
"&&&&&&&&&&@@@@@@@@@@@&@@&&&&&&&&",
"&&&&&&&&&&&@&@@@@@&@@&&&&&&&&&&&",
"&&&&&&&&&&&&&&@@@&&&&&&&&&&&&&&&",
"&&&&&&&&&&&&&&&&&&&&&&&&&&&&&&&&"
};
