/* XPM */
static char *result[] = {
/* columns rows colors chars-per-pixel */
"32 32 14 1 ",
"  c black",
". c #3E0000",
"X c #5E0000",
"o c #7E0000",
"O c #403200",
"+ c #5C4800",
"@ c #765D00",
"# c #9C0000",
"$ c #BA0000",
"% c #917200",
"& c #C79C00",
"* c #FFC800",
"= c #FFDB5F",
"- c None",
/* pixels */
"-------------.....--------------",
"-----------..XXXXX..------------",
"----------.XXoooooXX.-----------",
"---------.Xooo###oooX.----------",
"--------.Xoo##$$$##ooX.---------",
"--------Xoo##$$$$$##ooX.--------",
"-------.Xo###########oX.--------",
"-------.XXXXXoo####oo#oX.-------",
"------.XXXX..XXo#o##oooo.-------",
"------       .XXoooo#oooX.------",
"------O  O+++ .XXXXoooXoXX.-----",
"------OOO%&*&+ .XX.XXoXXXXX-----",
"------OOO*==*@ ..X..XX.XXXX.----",
"------OOO&=*@O  .....X....XX----",
"------O OO@@O   .........XXX----",
"------   OOO    ....X.X.XXXX.---",
"------.        .....XXXXXXoXX---",
"------...    ....X.XXXXXXoooXo--",
"------..X.....X..X.XXXXXXooooo--",
"-------XXX.X.XXX.XXXXXoXoooooo--",
"-------ooXXXXoXXXXoXXoooooo#o#--",
"-------oooXoXooXXoooXoooooo###--",
"--------oooooo#oXooooo#o#o###---",
"--------##oooo#oooo#oo#o#####---",
"---------##oo###oo##o#######----",
"---------###o####o######-##-----",
"----------##############--------",
"-----------############---------",
"------------#-#######-----------",
"---------------###--------------",
"--------------------------------",
"--------------------------------"
};
