/* XPM */
static char *result[] = {
/* columns rows colors chars-per-pixel */
"32 32 14 1 ",
"  c black",
". c #3E0000",
"X c #5E0000",
"o c #7E0000",
"O c #403200",
"+ c #5C4800",
"@ c #765D00",
"# c #9C0000",
"$ c #BA0000",
"% c #917200",
"& c #C79C00",
"* c #FFC800",
"= c #FFDB5F",
"- c None",
/* pixels */
"--------------.....-------------",
"------------..XXXXX..-----------",
"-----------.XXoooooXX.----------",
"----------.Xooo###oooX.---------",
"---------.Xoo##$$$##ooX.--------",
"--------.Xoo##$$$$$##ooX.-------",
"--------.Xo###ooooo###oX.-------",
"-------.Xo#oooXXXXXooo#oX.------",
"-------.oooXX.......XXooo.------",
"------.XoXX.         .XXoX.-----",
"------.oXX.+++O   O+++.XXo.-----",
"-----.XXX.+&*&%OOO%&*&+.XXX.----",
"-----.XXX @*==*OOO*==*@ XXX.----",
"----XXoX. O@*=&OOO&=*@O .XoXX---",
"----XoXX.  O@@OO OO@@O  .XXoX---",
"---XooXX..  OOO   OOO  ..XXooX--",
"---XoooX...           ...XoooX--",
"---ooooXXX...       ...XXXoooo--",
"---Xo#oXXXX.X.......X.XXXXo#oX--",
"---Xo#ooXXXXXX.XXX.XXXXXXoo#oX--",
"---o###ooXoXXoXXXXXoXXoXoo###o--",
"----###ooooXoooXXXoooXoooo###---",
"----####oo#ooo#oXo#ooo#oo####---",
"-----#o##o#oo##ooo##oo#o##o#----",
"-------####oo###o###oo####------",
"-------#####o###o###o#####------",
"--------#-#############-#-------",
"----------#############---------",
"-----------##-#####-##----------",
"---------------###--------------",
"--------------------------------",
"--------------------------------"
};
