/* XPM */
static char *result[] = {
/* columns rows colors chars-per-pixel */
"32 32 26 1 ",
"  c gray26",
". c gray27",
"X c #484848",
"o c #494949",
"O c #575756",
"+ c #585857",
"@ c #595958",
"# c #5A5A59",
"$ c #5B5B5A",
"% c #5C5C5B",
"& c #5D5D5C",
"* c gray37",
"= c #5F5F5E",
"- c #616160",
"; c gray38",
": c #696967",
"> c #6D6D6B",
", c #6F6F6F",
"< c #727272",
"1 c gray46",
"2 c #767676",
"3 c #777777",
"4 c #989898",
"5 c #9B9B9B",
"6 c gray61",
"7 c gray62",
/* pixels */
"#::::::::::::::::::#$&>>==>==&$o",
":###################&777777777&o",
":###################=777777777=o",
":###################=777777777=o",
":###########$%%%%%%&-777777777=o",
":##########$111111113777777777=o",
":#########o%111111112677777777=o",
":#########@%111111112677777777=o",
":#########$&111111112677777777=o",
":##;;;;;;;;;111111112677777777=o",
":##;;;;;;;;;111111112677777777=o",
":##;;;;;;;;;111111112677777777=o",
":##;;;;;;;;;111111112677777777=o",
":##;;;;;;;;;111111112677777777=o",
":##;;;;;;;;;111111112577777777=o",
":##;;;;;;;;;111111111444444445%o",
":##;;;;;;;;;111111111oXXXXXXX.#o",
":##;;;;;;;;;11111111<.        +o",
":##;;;;;;;;;11111111<.        Oo",
":##;;;;;;;;;<<<<<<<<,         Oo",
":##;;;;;;;;;........          Oo",
":##;;;;;;;;;                  Oo",
":##;;;;;;;;;                  Oo",
":#@;;;;;;;;*                  Oo",
":#+                           Oo",
":#+                           +o",
":#@+OOOOOOOOOOOOOOOOOOOOOOOOO+@o",
":##############################o",
":##############################o",
":##############################o",
":##############################o",
"oooooooooooooooooooooooooooooooo"
};
