/* XPM */
static char *result[] = {
/* columns rows colors chars-per-pixel */
"32 32 32 1 ",
"  c gray13",
". c gray26",
"X c #484848",
"o c #494949",
"O c gray29",
"+ c #4B4B4B",
"@ c #4C4C4C",
"# c gray30",
"$ c #4E4E4E",
"% c gray31",
"& c #505050",
"* c #515151",
"= c gray32",
"- c #535353",
"; c gray33",
": c #555555",
"> c #565656",
", c gray34",
"< c #585858",
"1 c #5A5A5A",
"2 c #5B5B5B",
"3 c gray37",
"4 c gray38",
"5 c gray42",
"6 c #6F6F6F",
"7 c gray46",
"8 c gray55",
"9 c #939393",
"0 c gray62",
"q c #A5A5A5",
"w c #AFAFAF",
"e c gray74",
/* pixels */
",8998;9009%2332,.             .4",
"29999,9009&3333<.             .4",
"29009,9009&3443<.             .4",
"29009,9009&3443<.             .4",
"29009,9009&3443<.             .4",
"29009,9009&3443<.             .4",
">9009;8999@3443=.             .4",
"-9009:=22=$3443#.             .4",
"&9009>qwwq%3443o.             .4",
"=90092wwew;3443+.             .4",
"=90092weew;3443+.             .4",
"=90092weew;3443+.             .4",
"=90092weew;3443+.             .4",
"=99092weew;3443+.             .4",
"%8999,weew=2332O.             .4",
"@+&&+:weew-X++X+.             .4",
"O2333=weew;5665+.             .4",
"+3343;weew>6776$.             .4",
"+3443;weew>6776$.             .4",
"+3443;weew>6776$.             .4",
"+3443;weew>6776$.             .4",
"+3443;weew>6776$.             .4",
"+3443;wwew>6776$.             .4",
"o3443%qwwq*6776+.             .4",
"@3443$=22=&6776&.             .4",
"%3443@8999%6776;.             .4",
";3443&9009=67761.             .4",
";3443&9009=67761.             .4",
";3443&9009=67761.             .4",
";3333&9009=66661.             .4",
"=2332%9009&5665<.             .4",
":+&&+*9009%X++X,.             .4"
};
