/* XPM */
static char *result[] = {
/* columns rows colors chars-per-pixel */
"32 32 86 1 ",
"  c gray13",
". c #222222",
"X c gray14",
"o c #252525",
"O c gray15",
"+ c #272727",
"@ c #282828",
"# c gray16",
"$ c gray17",
"% c #2F2F2F",
"& c #313131",
"* c #323232",
"= c gray20",
"- c #343434",
"; c #353535",
": c gray21",
"> c #373737",
", c gray22",
"< c #393939",
"1 c #3A3A3A",
"2 c #3E3E3E",
"3 c #3F3F3F",
"4 c gray25",
"5 c #414141",
"6 c gray26",
"7 c #434343",
"8 c #444444",
"9 c gray27",
"0 c #464646",
"q c gray28",
"w c #484848",
"e c #494949",
"r c gray29",
"t c #4B4B4B",
"y c #4C4C4C",
"u c #4E4E4E",
"i c gray31",
"p c #505050",
"a c #515151",
"s c gray32",
"d c #535353",
"f c gray33",
"g c #565656",
"h c gray34",
"j c #585858",
"k c gray35",
"l c #5A5A5A",
"z c #5B5B5B",
"x c gray36",
"c c #5D5D5D",
"v c gray37",
"b c #5F5F5F",
"n c #606060",
"m c gray38",
"M c gray39",
"N c #646464",
"B c #656565",
"V c gray40",
"C c #676767",
"Z c #6A6A6A",
"A c gray42",
"S c #6C6C6C",
"D c #6D6D6D",
"F c #6F6F6F",
"G c #717171",
"H c gray45",
"J c #747474",
"K c gray46",
"L c #808080",
"P c #818181",
"I c #848484",
"U c gray52",
"Y c #888888",
"T c #898989",
"R c gray54",
"E c #8B8B8B",
"W c gray56",
"Q c #909090",
"! c #929292",
"~ c gray59",
"^ c #989898",
"/ c gray60",
"( c #9B9B9B",
") c gray61",
"_ c #9D9D9D",
"` c gray62",
/* pixels */
"bczzzvvvvvvvvvvvvvvvvvvvvvvvvvvv",
"ce766666666666666666666666666666",
"z7$++XXXXXXXXXXXXXXXXXXXXXXXXXXX",
"z6+                             ",
"z6+                             ",
"z6O                             ",
"v6X                             ",
"v6X                             ",
"v6X                             ",
"v6X                             ",
"v6X                             ",
"v6X                             ",
"v6X                             ",
"v6X                             ",
"v6X            .o+@@XXXXXXO+++++",
"v6X           .O;135666666666666",
"v6X           o=%3ihzvbbbbbbbblf",
"v6X           @,2;7jCSGGGGGGGGVs",
"v6X           #2y7:9lAHKKKKKKKSs",
"v6X           @5hl9*8zFHJKKKKKSs",
"v6X           O6zZc9>9cASZSSSSBs",
"v6X           X6vDFx9*8khkzsssss",
"v6X           X6bGJDc9&7hKLQQQQQ",
"v6X           X6nGKHAk7>wMY^````",
"v6X           X6bGKJSlhw<rBW/```",
"v6X           X6bGKKZcKMr<rNT!QQ",
"v6X           X6bGKKSmLYBt1rcsss",
"v6X           X6bGKKSxR^Ymq>6u54",
"v6X           X6bGKJSxR/~Pg6-5i9",
"v6X           X6bGJHSsE((Usp6&6m",
"v6X           O6lVVBBsQ)(Ia9d6;6",
"v6X           +6ssssssQ__E970s4@"
};
