/* XPM */
static char *result[] = {
/* columns rows colors chars-per-pixel */
"32 32 32 1 ",
"  c gray13",
". c gray26",
"X c #484848",
"o c #494949",
"O c gray29",
"+ c #4B4B4B",
"@ c #4C4C4C",
"# c gray30",
"$ c #4E4E4E",
"% c gray31",
"& c #505050",
"* c #515151",
"= c gray32",
"- c #535353",
"; c gray33",
": c #555555",
"> c #565656",
", c gray34",
"< c #585858",
"1 c #5A5A5A",
"2 c #5B5B5B",
"3 c gray37",
"4 c gray38",
"5 c gray42",
"6 c #6F6F6F",
"7 c gray46",
"8 c gray55",
"9 c #939393",
"0 c gray62",
"q c #A5A5A5",
"w c #AFAFAF",
"e c gray74",
/* pixels */
",22222>-&=====%@O++++++o@%;;;;==",
"899999999999998+233333333333332@",
"900000000000009&344444444444443&",
"900000000000009&344444444444443&",
"899999999999998+233333333333332+",
";,,,,,;:>22222,:=;;;;;;%$@&&&&%*",
"9999998=qwwwwwwwwwwwwwwq=8999999",
"00000092weeeeeeeeeeeeeew29000000",
"00000092weeeeeeeeeeeeeew29000000",
"9999998=qwwwwwwwwwwwwwwq=8999999",
"%&&&&&@$%;;;;;=-;>>>>>>*&%====&%",
"233333333333332X566666666666665X",
"344444444444443+677777777777776+",
"344444444444443+677777777777776+",
"233333333333332X566666666666665X",
",<<<<<=#o+++++O++$$$$$$+&;1111<,",
"................................",
"                                ",
"                                ",
"                                ",
"                                ",
"                                ",
"                                ",
"                                ",
"                                ",
"                                ",
"                                ",
"                                ",
"                                ",
"                                ",
"................................",
"44444444444444444444444444444444"
};
