/* XPM */
static char *result[] = {
/* columns rows colors chars-per-pixel */
"32 32 40 1 ",
"  c #484848",
". c #494949",
"X c gray29",
"o c #4B4B4B",
"O c #4C4C4C",
"+ c gray30",
"@ c #4E4E4E",
"# c gray31",
"$ c #505050",
"% c #515151",
"& c gray32",
"* c #535353",
"= c gray33",
"- c #555555",
"; c #565656",
": c gray34",
"> c #585858",
", c gray35",
"< c #5A5A5A",
"1 c #5B5B5B",
"2 c #5D5D5D",
"3 c gray37",
"4 c #5F5F5F",
"5 c gray38",
"6 c #626262",
"7 c #686868",
"8 c gray42",
"9 c #6F6F6F",
"0 c gray46",
"q c gray55",
"w c #8E8E8E",
"e c #939393",
"r c #979797",
"t c gray62",
"y c #A5A5A5",
"u c #AFAFAF",
"i c gray74",
"p c #C1C1C1",
"a c #CECECE",
"s c gray88",
/* pixels */
"uuuuuuy#8999999999999998#yuuuuuu",
"iiiiiiu;9000000000000009;uiiiiii",
"iiiiiiu;9000000000000009;uiiiiii",
"uuuuuuy#8999999999999998#yuuuuuu",
"======#O.ooooooXO#&&&&&$*;111>;=",
"3333333333333331oqeeeeeeeeeeew63",
"5555555555555553$etttttttttttr75",
"5555555555555553$etttttttttttr75",
"5555555555555553$etttttttttttr75",
"3333333333333331oqeeeeeeeeeeew63",
">>>>>>&+.ooooooXO#&&&&&$=,4442<>",
"aaaaaap&8999999999999998&paaaaaa",
"ssssssa<9000000000000009<assssss",
"ssssssa<9000000000000009<assssss",
"ssssssa<9000000000000009<assssss",
"aaaaaap&8999999999999998&paaaaaa",
":><<<<=$o@@@@@@ooXooooo.+&>>>>>:",
" 899999999999998 133333333333331",
"o900000000000009o355555555555553",
"o900000000000009o355555555555553",
" 899999999999998 133333333333331",
"#$&&&&#$%;;;;;;=*&=====#@O$$$$$#",
"eeeeeeq&yuuuuuuuuuuuuuuy&qeeeeee",
"tttttte1uiiiiiiiiiiiiiiu1etttttt",
"tttttte1uiiiiiiiiiiiiiiu1etttttt",
"eeeeeeq&yuuuuuuuuuuuuuuy&qeeeeee",
"%#$$$$O@#======&-:11111;-=:::::=",
"o133333333333331oqeeeeeeeeeeeeeq",
"$355555555555553$ettttttttttttte",
"$355555555555553$ettttttttttttte",
"o133333333333331oqeeeeeeeeeeeeeq",
"-&====#O.ooooooXO#&&&&&$*;11111:"
};
